<svg data-v-423bf9ae="" xmlns="http://www.w3.org/2000/svg" viewBox="0 0 745.7142857142858 184" class="iconAboveSlogan"><!----><!----><!----><g data-v-423bf9ae="" id="35a4b16b-6620-4840-9df3-a7bfc5cd0f18" fill="white" transform="matrix(4.8979591836734695,0,0,4.8979591836734695,0.000004359653985375189,103)"><path d="M3.50 12.25L0 12.25L0 3.50L1.75 3.50L1.75 1.75L3.50 1.75L3.50 0L8.75 0L8.75 1.75L10.50 1.75L10.50 3.50L12.25 3.50L12.25 12.25L8.75 12.25L8.75 8.75L3.50 8.75L3.50 12.25ZM3.50 3.50L3.50 7L8.75 7L8.75 3.50L7 3.50L7 1.75L5.25 1.75L5.25 3.50L3.50 3.50ZM26.25 12.25L15.75 12.25L15.75 10.50L14 10.50L14 5.25L15.75 5.25L15.75 3.50L26.25 3.50L26.25 5.25L17.50 5.25L17.50 10.50L26.25 10.50L26.25 12.25ZM36.75 12.25L33.25 12.25L33.25 5.25L29.75 5.25L29.75 3.50L33.25 3.50L33.25 0L36.75 0L36.75 3.50L40.25 3.50L40.25 5.25L36.75 5.25L36.75 12.25ZM50.75 1.75L47.25 1.75L47.25 0L50.75 0L50.75 1.75ZM54.25 12.25L43.75 12.25L43.75 10.50L47.25 10.50L47.25 5.25L45.50 5.25L45.50 3.50L50.75 3.50L50.75 10.50L54.25 10.50L54.25 12.25ZM66.50 12.25L57.75 12.25L57.75 10.50L56 10.50L56 5.25L57.75 5.25L57.75 3.50L66.50 3.50L66.50 5.25L68.25 5.25L68.25 10.50L66.50 10.50L66.50 12.25ZM59.50 5.25L59.50 10.50L64.75 10.50L64.75 5.25L59.50 5.25ZM73.50 12.25L70 12.25L70 3.50L80.50 3.50L80.50 5.25L82.25 5.25L82.25 12.25L78.75 12.25L78.75 5.25L73.50 5.25L73.50 12.25ZM87.50 12.25L84 12.25L84 3.50L85.75 3.50L85.75 1.75L87.50 1.75L87.50 0L92.75 0L92.75 1.75L94.50 1.75L94.50 3.50L96.25 3.50L96.25 12.25L92.75 12.25L92.75 8.75L87.50 8.75L87.50 12.25ZM87.50 3.50L87.50 7L92.75 7L92.75 3.50L91 3.50L91 1.75L89.25 1.75L89.25 3.50L87.50 3.50ZM106.75 12.25L103.25 12.25L103.25 5.25L99.75 5.25L99.75 3.50L103.25 3.50L103.25 0L106.75 0L106.75 3.50L110.25 3.50L110.25 5.25L106.75 5.25L106.75 12.25ZM124.25 12.25L113.75 12.25L113.75 10.50L117.25 10.50L117.25 1.75L115.50 1.75L115.50 0L120.75 0L120.75 10.50L124.25 10.50L124.25 12.25ZM138.25 12.25L127.75 12.25L127.75 10.50L126 10.50L126 8.75L127.75 8.75L127.75 7L134.75 7L134.75 5.25L127.75 5.25L127.75 3.50L136.50 3.50L136.50 5.25L138.25 5.25L138.25 12.25ZM129.50 8.75L129.50 10.50L134.75 10.50L134.75 8.75L129.50 8.75ZM150.50 12.25L140 12.25L140 10.50L148.75 10.50L148.75 8.75L141.75 8.75L141.75 7L140 7L140 5.25L141.75 5.25L141.75 3.50L150.50 3.50L150.50 5.25L143.50 5.25L143.50 7L150.50 7L150.50 8.75L152.25 8.75L152.25 10.50L150.50 10.50L150.50 12.25Z"></path></g><!----><g data-v-423bf9ae="" id="fa168067-18a0-46b4-b0d9-10a82795a443" transform="matrix(1.3421016164862898,0,0,1.3421016164862898,308.4343960937275,-20.359019525432913)" stroke="none" fill="white"><path d="M40.363 56.328l-6.396 16.094-2.54-2.357-1.164-1.081.001-.001-2.933-2.721-2.539-2.357 15.571-7.577m7.529-8.111L17.789 62.863l6.821 6.33-9.03 9.729 4.097 3.802 9.029-9.729 6.821 6.33 12.365-31.108z"></path><path d="M54.75 15.665c-14.75 0-26.75 12-26.75 26.75 0 1.62.15 3.21.43 4.75h4.07c-.33-1.529-.5-3.12-.5-4.75 0-12.54 10.21-22.75 22.75-22.75s22.75 10.21 22.75 22.75-10.21 22.75-22.75 22.75c-1.81 0-3.56-.21-5.25-.62v4.101c1.7.34 3.45.52 5.25.52 14.75 0 26.75-12 26.75-26.75s-12-26.751-26.75-26.751z"></path><path d="M54.75 26.365c-8.85 0-16.05 7.2-16.05 16.05 0 .972.09 1.926.258 2.85H41.4c-.198-.917-.3-1.872-.3-2.85 0-7.524 6.126-13.65 13.65-13.65 7.523 0 13.65 6.126 13.65 13.65 0 7.523-6.127 13.65-13.65 13.65-1.086 0-2.136-.127-3.15-.373v2.461c1.021.203 2.07.312 3.15.312 8.85 0 16.05-7.2 16.05-16.05 0-8.85-7.2-16.05-16.05-16.05z"></path></g><!----><g data-v-423bf9ae="" id="21364433-d9b4-4c26-8750-74db2d582e1e" fill="white" transform="matrix(0.7920996899710836,0,0,0.7920996899710836,93.56920116940694,202.53721641112156)"><path d="M3.37 5.88L6.20 15.18L6.37 15.18L6.37 5.88L7.55 5.88L7.55 15.68L5.19 15.68L2.37 6.38L2.20 6.38L2.20 15.68L1.02 15.68L1.02 5.88L3.37 5.88ZM22.67 15.68L21.95 13.24L17.75 13.24L17.04 15.68L15.78 15.68L18.75 5.88L20.96 5.88L23.93 15.68L22.67 15.68ZM19.94 6.38L19.77 6.38L18.07 12.15L21.63 12.15L19.94 6.38ZM34.29 15.68L31.51 5.88L32.77 5.88L35.34 15.18L35.50 15.18L38.07 5.88L39.33 5.88L36.55 15.68L34.29 15.68ZM47.88 6.97L47.88 5.88L54.10 5.88L54.10 6.97L51.58 6.97L51.58 14.59L54.10 14.59L54.10 15.68L47.88 15.68L47.88 14.59L50.40 14.59L50.40 6.97L47.88 6.97ZM65.62 12.07L65.62 10.98L69.99 10.98L69.99 15.68L68.89 15.68L68.89 14.50L68.73 14.50Q68.49 15.12 67.89 15.50Q67.28 15.88 66.49 15.88L66.49 15.88Q64.90 15.88 64.00 14.85Q63.10 13.83 63.10 11.87L63.10 11.87L63.10 9.69Q63.10 7.78 64.01 6.73Q64.92 5.68 66.54 5.68L66.54 5.68Q67.38 5.68 68.03 5.96Q68.67 6.23 69.10 6.71Q69.54 7.20 69.76 7.85Q69.99 8.50 69.99 9.24L69.99 9.24L69.99 9.41L68.81 9.41L68.81 9.24Q68.81 8.76 68.68 8.32Q68.54 7.87 68.27 7.53Q68.00 7.18 67.57 6.98Q67.14 6.78 66.54 6.78L66.54 6.78Q65.41 6.78 64.84 7.60Q64.27 8.43 64.27 9.77L64.27 9.77L64.27 11.79Q64.27 13.23 64.84 14.01Q65.41 14.78 66.57 14.78L66.57 14.78Q67.62 14.78 68.22 14.11Q68.81 13.44 68.81 12.24L68.81 12.24L68.81 12.07L65.62 12.07ZM84.94 15.68L84.22 13.24L80.02 13.24L79.31 15.68L78.05 15.68L81.02 5.88L83.23 5.88L86.20 15.68L84.94 15.68ZM82.21 6.38L82.04 6.38L80.35 12.15L83.90 12.15L82.21 6.38ZM94.25 6.97L94.25 5.88L101.14 5.88L101.14 6.97L98.28 6.97L98.28 15.68L97.10 15.68L97.10 6.97L94.25 6.97ZM110.29 15.68L110.29 5.88L116.23 5.88L116.23 6.97L111.47 6.97L111.47 10.22L116.14 10.22L116.14 11.31L111.47 11.31L111.47 14.59L116.31 14.59L116.31 15.68L110.29 15.68ZM143.81 15.68L143.81 12.24L143.56 12.24L140.49 5.88L141.81 5.88L144.31 11.23L144.48 11.23L146.99 5.88L148.30 5.88L145.24 12.24L144.98 12.24L144.98 15.68L143.81 15.68ZM156.52 11.87L156.52 9.69Q156.52 7.78 157.43 6.73Q158.34 5.68 159.96 5.68L159.96 5.68Q161.59 5.68 162.50 6.73Q163.41 7.78 163.41 9.69L163.41 9.69L163.41 11.87Q163.41 13.83 162.50 14.85Q161.59 15.88 159.96 15.88L159.96 15.88Q158.34 15.88 157.43 14.85Q156.52 13.83 156.52 11.87L156.52 11.87ZM159.96 14.78L159.96 14.78Q161.10 14.78 161.67 14.01Q162.23 13.23 162.23 11.79L162.23 11.79L162.23 9.77Q162.23 8.43 161.67 7.60Q161.10 6.78 159.96 6.78L159.96 6.78Q158.83 6.78 158.26 7.60Q157.70 8.43 157.70 9.77L157.70 9.77L157.70 11.79Q157.70 13.23 158.26 14.01Q158.83 14.78 159.96 14.78ZM172.17 5.88L173.35 5.88L173.35 12.38Q173.35 13.57 173.90 14.17Q174.45 14.78 175.53 14.78L175.53 14.78Q176.61 14.78 177.16 14.17Q177.72 13.57 177.72 12.38L177.72 12.38L177.72 5.88L178.89 5.88L178.89 12.38Q178.89 14.08 178.00 14.98Q177.10 15.88 175.53 15.88L175.53 15.88Q173.96 15.88 173.07 14.98Q172.17 14.08 172.17 12.38L172.17 12.38L172.17 5.88ZM194.17 12.15L194.17 15.68L192.99 15.68L192.99 12.40Q192.99 12.04 192.82 11.84Q192.65 11.65 192.23 11.65L192.23 11.65L189.18 11.65L189.18 15.68L188.01 15.68L188.01 5.88L191.51 5.88Q192.26 5.88 192.82 6.10Q193.38 6.31 193.75 6.68Q194.12 7.04 194.31 7.53Q194.50 8.01 194.50 8.54L194.50 8.54L194.50 8.96Q194.50 9.51 194.20 10.05Q193.90 10.60 193.27 10.89L193.27 10.89L193.27 11.06Q193.69 11.13 193.93 11.40Q194.17 11.66 194.17 12.15L194.17 12.15ZM189.18 6.97L189.18 10.56L191.37 10.56Q192.36 10.56 192.84 10.13Q193.33 9.70 193.33 8.88L193.33 8.88L193.33 8.62Q193.33 7.88 192.84 7.43Q192.36 6.97 191.37 6.97L191.37 6.97L189.18 6.97ZM218.97 6.97L218.97 5.88L222.19 5.88Q224.01 5.88 224.85 6.75Q225.69 7.62 225.69 9.52L225.69 9.52L225.69 12.04Q225.69 13.94 224.85 14.81Q224.01 15.68 222.19 15.68L222.19 15.68L218.97 15.68L218.97 14.57L219.81 14.57L219.81 6.97L218.97 6.97ZM220.99 14.59L222.03 14.59Q222.67 14.59 223.14 14.46Q223.61 14.34 223.92 14.04Q224.22 13.73 224.37 13.23Q224.52 12.73 224.52 11.96L224.52 11.96L224.52 9.60Q224.52 8.83 224.37 8.33Q224.22 7.83 223.92 7.53Q223.61 7.22 223.14 7.10Q222.67 6.97 222.03 6.97L222.03 6.97L220.99 6.97L220.99 14.59ZM240.62 15.68L239.90 13.24L235.70 13.24L234.99 15.68L233.73 15.68L236.70 5.88L238.91 5.88L241.88 15.68L240.62 15.68ZM237.89 6.38L237.72 6.38L236.03 12.15L239.58 12.15L237.89 6.38ZM252.78 15.68L252.78 12.24L252.53 12.24L249.47 5.88L250.78 5.88L253.29 11.23L253.46 11.23L255.96 5.88L257.28 5.88L254.21 12.24L253.96 12.24L253.96 15.68L252.78 15.68ZM288.64 5.88L287.64 15.68L285.50 15.68L284.59 6.38L284.42 6.38L283.51 15.68L281.37 15.68L280.38 5.88L281.44 5.88L282.38 15.18L282.55 15.18L283.43 5.88L285.59 5.88L286.47 15.18L286.64 15.18L287.57 5.88L288.64 5.88ZM296.97 6.97L296.97 5.88L303.18 5.88L303.18 6.97L300.66 6.97L300.66 14.59L303.18 14.59L303.18 15.68L296.97 15.68L296.97 14.59L299.49 14.59L299.49 6.97L296.97 6.97ZM312.20 6.97L312.20 5.88L319.09 5.88L319.09 6.97L316.23 6.97L316.23 15.68L315.06 15.68L315.06 6.97L312.20 6.97ZM327.95 15.68L327.95 5.88L329.13 5.88L329.13 10.22L333.30 10.22L333.30 5.88L334.47 5.88L334.47 15.68L333.30 15.68L333.30 11.31L329.13 11.31L329.13 15.68L327.95 15.68ZM362.75 11.65L360.43 11.65L360.43 15.68L359.25 15.68L359.25 5.88L362.75 5.88Q363.51 5.88 364.07 6.10Q364.63 6.31 365.00 6.68Q365.37 7.04 365.56 7.53Q365.75 8.01 365.75 8.54L365.75 8.54L365.75 8.96Q365.75 9.49 365.56 9.98Q365.37 10.47 364.99 10.84Q364.62 11.21 364.06 11.43Q363.50 11.65 362.75 11.65L362.75 11.65ZM360.43 6.97L360.43 10.56L362.61 10.56Q364.57 10.56 364.57 8.88L364.57 8.88L364.57 8.62Q364.57 7.88 364.09 7.43Q363.61 6.97 362.61 6.97L362.61 6.97L360.43 6.97ZM380.98 12.15L380.98 15.68L379.81 15.68L379.81 12.40Q379.81 12.04 379.64 11.84Q379.47 11.65 379.05 11.65L379.05 11.65L376.00 11.65L376.00 15.68L374.82 15.68L374.82 5.88L378.32 5.88Q379.08 5.88 379.64 6.10Q380.20 6.31 380.57 6.68Q380.94 7.04 381.13 7.53Q381.32 8.01 381.32 8.54L381.32 8.54L381.32 8.96Q381.32 9.51 381.02 10.05Q380.72 10.60 380.09 10.89L380.09 10.89L380.09 11.06Q380.51 11.13 380.74 11.40Q380.98 11.66 380.98 12.15L380.98 12.15ZM376.00 6.97L376.00 10.56L378.18 10.56Q379.18 10.56 379.66 10.13Q380.14 9.70 380.14 8.88L380.14 8.88L380.14 8.62Q380.14 7.88 379.66 7.43Q379.18 6.97 378.18 6.97L378.18 6.97L376.00 6.97ZM390.52 15.68L390.52 5.88L396.45 5.88L396.45 6.97L391.69 6.97L391.69 10.22L396.37 10.22L396.37 11.31L391.69 11.31L391.69 14.59L396.54 14.59L396.54 15.68L390.52 15.68ZM409.11 14.78L409.11 14.78Q409.71 14.78 410.14 14.58Q410.56 14.38 410.84 14.04Q411.11 13.69 411.24 13.25Q411.38 12.81 411.38 12.32L411.38 12.32L411.38 12.15L412.55 12.15L412.55 12.32Q412.55 13.06 412.33 13.71Q412.10 14.36 411.67 14.85Q411.24 15.33 410.59 15.60Q409.95 15.88 409.11 15.88L409.11 15.88Q407.48 15.88 406.57 14.85Q405.66 13.83 405.66 11.87L405.66 11.87L405.66 9.69Q405.66 7.78 406.57 6.73Q407.48 5.68 409.11 5.68L409.11 5.68Q409.95 5.68 410.59 5.96Q411.24 6.23 411.67 6.71Q412.10 7.20 412.33 7.85Q412.55 8.50 412.55 9.24L412.55 9.24L412.55 9.41L411.38 9.41L411.38 9.24Q411.36 8.76 411.23 8.32Q411.10 7.87 410.82 7.53Q410.55 7.18 410.13 6.98Q409.71 6.78 409.11 6.78L409.11 6.78Q407.97 6.78 407.41 7.60Q406.84 8.43 406.84 9.77L406.84 9.77L406.84 11.79Q406.84 13.23 407.41 14.01Q407.97 14.78 409.11 14.78ZM421.51 6.97L421.51 5.88L427.73 5.88L427.73 6.97L425.21 6.97L425.21 14.59L427.73 14.59L427.73 15.68L421.51 15.68L421.51 14.59L424.03 14.59L424.03 6.97L421.51 6.97ZM442.50 9.21L442.50 8.71Q442.50 8.23 442.31 7.87Q442.12 7.50 441.80 7.27Q441.48 7.03 441.06 6.90Q440.64 6.78 440.17 6.78L440.17 6.78Q439.77 6.78 439.40 6.88Q439.04 6.99 438.75 7.18Q438.47 7.38 438.30 7.66Q438.13 7.95 438.13 8.33L438.13 8.33L438.13 8.41Q438.13 8.82 438.30 9.11Q438.47 9.39 438.79 9.60Q439.12 9.80 439.61 9.93Q440.10 10.07 440.76 10.16L440.76 10.16Q442.30 10.40 443.03 11.07Q443.76 11.73 443.76 12.85L443.76 12.85L443.76 13.02Q443.76 13.65 443.54 14.17Q443.32 14.70 442.90 15.08Q442.47 15.46 441.84 15.67Q441.21 15.88 440.38 15.88L440.38 15.88Q439.45 15.88 438.72 15.60Q438.00 15.33 437.52 14.85Q437.04 14.36 436.79 13.71Q436.53 13.06 436.53 12.29L436.53 12.29L436.53 11.87L437.71 11.87L437.71 12.21Q437.71 13.50 438.42 14.14Q439.12 14.78 440.38 14.78L440.38 14.78Q441.48 14.78 442.03 14.30Q442.58 13.82 442.58 13.02L442.58 13.02L442.58 12.94Q442.58 12.17 442.01 11.76Q441.45 11.35 440.17 11.17L440.17 11.17Q439.43 11.07 438.84 10.87Q438.24 10.67 437.82 10.34Q437.40 10.01 437.18 9.55Q436.95 9.09 436.95 8.46L436.95 8.46L436.95 8.29Q436.95 7.71 437.19 7.24Q437.43 6.76 437.86 6.41Q438.28 6.06 438.88 5.87Q439.47 5.68 440.19 5.68L440.19 5.68Q441.01 5.68 441.66 5.92Q442.32 6.16 442.76 6.56Q443.21 6.96 443.44 7.50Q443.67 8.04 443.67 8.62L443.67 8.62L443.67 9.21L442.50 9.21ZM452.65 6.97L452.65 5.88L458.86 5.88L458.86 6.97L456.34 6.97L456.34 14.59L458.86 14.59L458.86 15.68L452.65 15.68L452.65 14.59L455.17 14.59L455.17 6.97L452.65 6.97ZM467.88 11.87L467.88 9.69Q467.88 7.78 468.79 6.73Q469.70 5.68 471.32 5.68L471.32 5.68Q472.95 5.68 473.86 6.73Q474.77 7.78 474.77 9.69L474.77 9.69L474.77 11.87Q474.77 13.83 473.86 14.85Q472.95 15.88 471.32 15.88L471.32 15.88Q469.70 15.88 468.79 14.85Q467.88 13.83 467.88 11.87L467.88 11.87ZM471.32 14.78L471.32 14.78Q472.46 14.78 473.02 14.01Q473.59 13.23 473.59 11.79L473.59 11.79L473.59 9.77Q473.59 8.43 473.02 7.60Q472.46 6.78 471.32 6.78L471.32 6.78Q470.19 6.78 469.62 7.60Q469.06 8.43 469.06 9.77L469.06 9.77L469.06 11.79Q469.06 13.23 469.62 14.01Q470.19 14.78 471.32 14.78ZM485.98 5.88L488.81 15.18L488.98 15.18L488.98 5.88L490.15 5.88L490.15 15.68L487.80 15.68L484.97 6.38L484.81 6.38L484.81 15.68L483.63 15.68L483.63 5.88L485.98 5.88ZM520.84 15.68L520.13 13.24L515.93 13.24L515.21 15.68L513.95 15.68L516.92 5.88L519.13 5.88L522.10 15.68L520.84 15.68ZM518.11 6.38L517.94 6.38L516.25 12.15L519.81 12.15L518.11 6.38ZM532.69 5.88L535.51 15.18L535.68 15.18L535.68 5.88L536.86 5.88L536.86 15.68L534.51 15.68L531.68 6.38L531.51 6.38L531.51 15.68L530.33 15.68L530.33 5.88L532.69 5.88ZM545.90 6.97L545.90 5.88L549.12 5.88Q550.94 5.88 551.78 6.75Q552.62 7.62 552.62 9.52L552.62 9.52L552.62 12.04Q552.62 13.94 551.78 14.81Q550.94 15.68 549.12 15.68L549.12 15.68L545.90 15.68L545.90 14.57L546.74 14.57L546.74 6.97L545.90 6.97ZM547.92 14.59L548.95 14.59Q549.60 14.59 550.07 14.46Q550.54 14.34 550.84 14.04Q551.15 13.73 551.30 13.23Q551.45 12.73 551.45 11.96L551.45 11.96L551.45 9.60Q551.45 8.83 551.30 8.33Q551.15 7.83 550.84 7.53Q550.54 7.22 550.07 7.10Q549.60 6.97 548.95 6.97L548.95 6.97L547.92 6.97L547.92 14.59ZM580.71 11.65L578.38 11.65L578.38 15.68L577.21 15.68L577.21 5.88L580.71 5.88Q581.46 5.88 582.02 6.10Q582.58 6.31 582.95 6.68Q583.32 7.04 583.51 7.53Q583.70 8.01 583.70 8.54L583.70 8.54L583.70 8.96Q583.70 9.49 583.51 9.98Q583.32 10.47 582.95 10.84Q582.57 11.21 582.01 11.43Q581.45 11.65 580.71 11.65L580.71 11.65ZM578.38 6.97L578.38 10.56L580.57 10.56Q582.53 10.56 582.53 8.88L582.53 8.88L582.53 8.62Q582.53 7.88 582.04 7.43Q581.56 6.97 580.57 6.97L580.57 6.97L578.38 6.97ZM592.51 5.88L593.68 5.88L593.68 12.38Q593.68 13.57 594.24 14.17Q594.79 14.78 595.87 14.78L595.87 14.78Q596.95 14.78 597.50 14.17Q598.05 13.57 598.05 12.38L598.05 12.38L598.05 5.88L599.23 5.88L599.23 12.38Q599.23 14.08 598.33 14.98Q597.44 15.88 595.87 15.88L595.87 15.88Q594.30 15.88 593.40 14.98Q592.51 14.08 592.51 12.38L592.51 12.38L592.51 5.88ZM614.50 12.15L614.50 15.68L613.33 15.68L613.33 12.40Q613.33 12.04 613.16 11.84Q612.99 11.65 612.57 11.65L612.57 11.65L609.52 11.65L609.52 15.68L608.34 15.68L608.34 5.88L611.84 5.88Q612.60 5.88 613.16 6.10Q613.72 6.31 614.09 6.68Q614.46 7.04 614.65 7.53Q614.84 8.01 614.84 8.54L614.84 8.54L614.84 8.96Q614.84 9.51 614.54 10.05Q614.24 10.60 613.61 10.89L613.61 10.89L613.61 11.06Q614.03 11.13 614.26 11.40Q614.50 11.66 614.50 12.15L614.50 12.15ZM609.52 6.97L609.52 10.56L611.70 10.56Q612.70 10.56 613.18 10.13Q613.66 9.70 613.66 8.88L613.66 8.88L613.66 8.62Q613.66 7.88 613.18 7.43Q612.70 6.97 611.70 6.97L611.70 6.97L609.52 6.97ZM627.41 11.65L625.09 11.65L625.09 15.68L623.91 15.68L623.91 5.88L627.41 5.88Q628.17 5.88 628.73 6.10Q629.29 6.31 629.66 6.68Q630.03 7.04 630.22 7.53Q630.41 8.01 630.41 8.54L630.41 8.54L630.41 8.96Q630.41 9.49 630.22 9.98Q630.03 10.47 629.65 10.84Q629.27 11.21 628.71 11.43Q628.15 11.65 627.41 11.65L627.41 11.65ZM625.09 6.97L625.09 10.56L627.27 10.56Q629.23 10.56 629.23 8.88L629.23 8.88L629.23 8.62Q629.23 7.88 628.75 7.43Q628.26 6.97 627.27 6.97L627.27 6.97L625.09 6.97ZM639.13 11.87L639.13 9.69Q639.13 7.78 640.04 6.73Q640.95 5.68 642.57 5.68L642.57 5.68Q644.20 5.68 645.11 6.73Q646.02 7.78 646.02 9.69L646.02 9.69L646.02 11.87Q646.02 13.83 645.11 14.85Q644.20 15.88 642.57 15.88L642.57 15.88Q640.95 15.88 640.04 14.85Q639.13 13.83 639.13 11.87L639.13 11.87ZM642.57 14.78L642.57 14.78Q643.71 14.78 644.27 14.01Q644.84 13.23 644.84 11.79L644.84 11.79L644.84 9.77Q644.84 8.43 644.27 7.60Q643.71 6.78 642.57 6.78L642.57 6.78Q641.44 6.78 640.87 7.60Q640.30 8.43 640.30 9.77L640.30 9.77L640.30 11.79Q640.30 13.23 640.87 14.01Q641.44 14.78 642.57 14.78ZM660.45 9.21L660.45 8.71Q660.45 8.23 660.26 7.87Q660.07 7.50 659.75 7.27Q659.43 7.03 659.01 6.90Q658.59 6.78 658.13 6.78L658.13 6.78Q657.72 6.78 657.36 6.88Q656.99 6.99 656.70 7.18Q656.42 7.38 656.25 7.66Q656.08 7.95 656.08 8.33L656.08 8.33L656.08 8.41Q656.08 8.82 656.25 9.11Q656.42 9.39 656.75 9.60Q657.08 9.80 657.57 9.93Q658.06 10.07 658.71 10.16L658.71 10.16Q660.25 10.40 660.98 11.07Q661.71 11.73 661.71 12.85L661.71 12.85L661.71 13.02Q661.71 13.65 661.49 14.17Q661.28 14.70 660.85 15.08Q660.42 15.46 659.79 15.67Q659.16 15.88 658.34 15.88L658.34 15.88Q657.40 15.88 656.68 15.60Q655.96 15.33 655.47 14.85Q654.99 14.36 654.74 13.71Q654.49 13.06 654.49 12.29L654.49 12.29L654.49 11.87L655.66 11.87L655.66 12.21Q655.66 13.50 656.37 14.14Q657.08 14.78 658.34 14.78L658.34 14.78Q659.43 14.78 659.98 14.30Q660.53 13.82 660.53 13.02L660.53 13.02L660.53 12.94Q660.53 12.17 659.97 11.76Q659.40 11.35 658.13 11.17L658.13 11.17Q657.38 11.07 656.79 10.87Q656.19 10.67 655.77 10.34Q655.35 10.01 655.13 9.55Q654.91 9.09 654.91 8.46L654.91 8.46L654.91 8.29Q654.91 7.71 655.14 7.24Q655.38 6.76 655.81 6.41Q656.24 6.06 656.83 5.87Q657.43 5.68 658.14 5.68L658.14 5.68Q658.97 5.68 659.62 5.92Q660.27 6.16 660.72 6.56Q661.16 6.96 661.39 7.50Q661.63 8.04 661.63 8.62L661.63 8.62L661.63 9.21L660.45 9.21ZM670.74 15.68L670.74 5.88L676.68 5.88L676.68 6.97L671.92 6.97L671.92 10.22L676.59 10.22L676.59 11.31L671.92 11.31L671.92 14.59L676.76 14.59L676.76 15.68L670.74 15.68ZM688.30 14.90L688.30 14.90Q688.30 14.49 688.58 14.20Q688.87 13.92 689.28 13.92L689.28 13.92Q689.68 13.92 689.97 14.20Q690.26 14.49 690.26 14.90L690.26 14.90Q690.26 15.30 689.97 15.59Q689.68 15.88 689.28 15.88L689.28 15.88Q688.87 15.88 688.58 15.59Q688.30 15.30 688.30 14.90ZM688.72 5.88L689.84 5.88L689.84 13.08L688.72 13.08L688.72 5.88ZM705.14 6.66L705.14 6.66Q705.14 6.26 705.42 5.97Q705.71 5.68 706.12 5.68L706.12 5.68Q706.52 5.68 706.81 5.97Q707.10 6.26 707.10 6.66L707.10 6.66Q707.10 6.97 706.93 7.22Q706.76 7.46 706.50 7.57L706.50 7.57L706.50 9.13L705.74 9.13L705.74 7.57Q705.47 7.46 705.31 7.22Q705.14 6.97 705.14 6.66ZM702.59 6.66L702.59 6.66Q702.59 6.26 702.88 5.97Q703.16 5.68 703.57 5.68L703.57 5.68Q703.98 5.68 704.26 5.97Q704.55 6.26 704.55 6.66L704.55 6.66Q704.55 6.97 704.38 7.22Q704.21 7.46 703.95 7.57L703.95 7.57L703.95 9.13L703.19 9.13L703.19 7.57Q702.93 7.46 702.76 7.22Q702.59 6.97 702.59 6.66Z"></path></g></svg>