<svg data-v-fde0c5aa="" xmlns="http://www.w3.org/2000/svg" viewBox="0 0 300 300" class="iconLeft"><!----><defs data-v-fde0c5aa=""><!----></defs><rect data-v-fde0c5aa="" fill="#000000" x="0" y="0" width="300px" height="300px" class="logo-background-square"></rect><defs data-v-fde0c5aa=""><!----></defs><g data-v-fde0c5aa="" id="3a316bdb-9b2e-42af-b9df-e7f31a4d339f" fill="#EFFF88"><path d=""></path></g><defs data-v-fde0c5aa=""><!----></defs><g data-v-fde0c5aa="" id="e8e2f176-d7ef-43c8-aa91-14eacc644d7b" stroke="none" fill="#EFFF88"><path d="M40.363 56.328l-6.396 16.094-2.54-2.357-1.164-1.081.001-.001-2.933-2.721-2.539-2.357 15.571-7.577m7.529-8.111L17.789 62.863l6.821 6.33-9.03 9.729 4.097 3.802 9.029-9.729 6.821 6.33 12.365-31.108z"></path><path d="M54.75 15.665c-14.75 0-26.75 12-26.75 26.75 0 1.62.15 3.21.43 4.75h4.07c-.33-1.529-.5-3.12-.5-4.75 0-12.54 10.21-22.75 22.75-22.75s22.75 10.21 22.75 22.75-10.21 22.75-22.75 22.75c-1.81 0-3.56-.21-5.25-.62v4.101c1.7.34 3.45.52 5.25.52 14.75 0 26.75-12 26.75-26.75s-12-26.751-26.75-26.751z"></path><path d="M54.75 26.365c-8.85 0-16.05 7.2-16.05 16.05 0 .972.09 1.926.258 2.85H41.4c-.198-.917-.3-1.872-.3-2.85 0-7.524 6.126-13.65 13.65-13.65 7.523 0 13.65 6.126 13.65 13.65 0 7.523-6.127 13.65-13.65 13.65-1.086 0-2.136-.127-3.15-.373v2.461c1.021.203 2.07.312 3.15.312 8.85 0 16.05-7.2 16.05-16.05 0-8.85-7.2-16.05-16.05-16.05z"></path></g><!----></svg>